<svg width="37" height="43" viewBox="0 0 37 43" fill="none" xmlns="http://www.w3.org/2000/svg">
<path d="M36.3982 31.2999C35.732 33.4319 34.6815 35.5638 33.2466 37.6958C31.0431 41.0387 28.8481 42.7102 26.6616 42.7102C25.8246 42.7102 24.6289 42.4373 23.0745 41.8915C21.6055 41.3457 20.3158 41.0728 19.2055 41.0728C18.1635 41.0728 16.9507 41.3543 15.5671 41.9171C14.1835 42.497 13.0561 42.7869 12.1849 42.7869C9.58852 42.7869 7.01773 40.5782 4.47256 36.1608C1.96156 31.7092 0.706055 27.4197 0.706055 23.2922C0.706055 19.4035 1.67117 16.2141 3.6014 13.724C5.53162 11.2679 7.95722 10.0399 10.8782 10.0399C12.1081 10.0399 13.6198 10.2958 15.4134 10.8074C17.1899 11.3191 18.3685 11.5749 18.9493 11.5749C19.7179 11.5749 20.9393 11.285 22.6133 10.7051C24.3556 10.1252 25.8332 9.83526 27.046 9.83526C29.0787 9.83526 30.8979 10.3896 32.5036 11.4982C33.3918 12.1122 34.28 12.965 35.1683 14.0566C33.8188 15.1993 32.8452 16.2056 32.2473 17.0754C31.137 18.6787 30.5819 20.4439 30.5819 22.3712C30.5819 24.4861 31.1712 26.3879 32.3498 28.0764C33.5285 29.7649 34.8779 30.8394 36.3982 31.2999ZM26.7641 1.29033C26.7641 2.33073 26.5164 3.49052 26.0211 4.7697C25.5086 6.04888 24.7143 7.22573 23.6382 8.30024C22.7158 9.22125 21.7934 9.83526 20.8709 10.1423C20.2389 10.3299 19.3507 10.4748 18.2062 10.5772C18.2575 8.03588 18.9236 5.84421 20.2048 4.00219C21.4688 2.17723 23.604 0.915106 26.6104 0.21582C26.6275 0.266988 26.6488 0.360794 26.6744 0.49724C26.7001 0.633686 26.7214 0.727492 26.7385 0.77866C26.7385 0.846883 26.7428 0.932161 26.7513 1.0345C26.7598 1.13683 26.7641 1.22211 26.7641 1.29033Z" fill="#DDDDDD"/>
</svg>
