<svg width="40" height="42" viewBox="0 0 40 42" fill="none" xmlns="http://www.w3.org/2000/svg">
<path d="M0.910889 38.9568V2.74209C0.911132 2.66352 0.934601 2.58677 0.978355 2.52146C1.02211 2.45615 1.0842 2.4052 1.15684 2.37499C1.22948 2.34478 1.30943 2.33665 1.38668 2.35163C1.46393 2.36661 1.53503 2.40403 1.59106 2.45919L20.4762 20.8485L1.59106 39.2397C1.53503 39.2948 1.46393 39.3323 1.38668 39.3472C1.30943 39.3622 1.22948 39.3541 1.15684 39.3239C1.0842 39.2937 1.02211 39.2427 0.978355 39.1774C0.934601 39.1121 0.911132 39.0353 0.910889 38.9568ZM28.3946 28.4048L4.71505 41.431L4.70029 41.4393C4.29237 41.6604 3.90475 41.1094 4.23884 40.7887L22.801 23.0665L28.3946 28.4048ZM4.24069 0.908314C3.90475 0.587635 4.29237 0.0365791 4.70213 0.25774L4.7169 0.266033L28.3946 13.2923L22.801 18.6323L4.24069 0.908314ZM37.954 23.1522L31.3414 26.7885L25.1239 20.8485L31.3414 14.9113L37.954 18.5448C39.7527 19.5372 39.7527 22.1598 37.954 23.1522Z" fill="white"/>
</svg>
