<svg width="109" height="93" viewBox="0 0 109 93" fill="none" xmlns="http://www.w3.org/2000/svg">
<path d="M62.1196 0L60.5957 8.9276C60.5681 9.07866 60.5897 9.2356 60.6566 9.37088C60.7235 9.50616 60.8314 9.61112 60.9614 9.66736C62.2262 10.2726 65.5331 12.307 63.8873 16.3925C62.2415 20.478 59.6051 20.2426 58.4775 19.9904C58.3288 19.9638 58.1764 19.9989 58.0498 20.089C57.9231 20.179 57.8312 20.3176 57.7917 20.478L55.6126 29.5065C55.5796 29.652 55.5917 29.8055 55.6469 29.9426C55.7021 30.0797 55.7973 30.1925 55.9173 30.263C57.1669 30.986 60.489 33.4239 58.9651 37.7111C58.5142 38.849 57.7387 39.7932 56.7567 40.4002C55.7747 41.0071 54.6399 41.2436 53.5248 41.0737C53.3758 41.0418 53.2214 41.0724 53.0918 41.1594C52.9621 41.2465 52.8666 41.3838 52.8238 41.5444L50.8123 50.1022C50.772 50.2414 50.7774 50.3918 50.8275 50.5271C50.8777 50.6623 50.9694 50.7738 51.0866 50.8419C52.3819 51.6657 56.2983 54.5576 54.4696 58.8112C53.9091 59.8861 53.09 60.7691 52.103 61.3625C51.116 61.9559 49.9995 62.2367 48.877 62.1738C48.7444 62.1791 48.6168 62.2309 48.5127 62.3216C48.4086 62.4123 48.3334 62.5371 48.2979 62.6781L46.4997 71.0845C46.4677 71.2277 46.4804 71.3786 46.5357 71.5128C46.591 71.647 46.6857 71.7568 46.8045 71.8243C47.6197 72.2596 48.3367 72.8899 48.9035 73.6693C49.4702 74.4488 49.8724 75.3577 50.0808 76.3301C50.2313 77.9327 49.9782 79.55 49.3494 81.0041C49.3106 81.0947 49.2907 81.1937 49.2911 81.2939C49.2915 81.3941 49.3121 81.4929 49.3516 81.5831C49.391 81.6733 49.4482 81.7527 49.519 81.8154C49.5898 81.8782 49.6724 81.9226 49.7608 81.9456L90.3573 92.9748C90.4469 93.0011 90.5409 93.0039 90.6316 92.9829C90.7224 92.962 90.8075 92.9179 90.8801 92.8542C90.9527 92.7904 91.0107 92.7089 91.0496 92.616C91.0884 92.523 91.1071 92.4214 91.104 92.3191C91.0828 90.7254 91.457 89.1557 92.1859 87.7797C92.7395 86.9857 93.4468 86.3382 94.2562 85.8844C95.0656 85.4306 95.9566 85.182 96.8643 85.1569C96.998 85.1509 97.1257 85.0941 97.2257 84.996C97.3257 84.8979 97.3918 84.7646 97.4129 84.6189L98.9367 76.2124C98.9551 76.0685 98.9327 75.9219 98.8727 75.7925C98.8127 75.6631 98.718 75.5573 98.6015 75.4895C97.5503 75.0295 96.6358 74.2559 95.9603 73.2553C95.2849 72.2547 94.875 71.0665 94.7765 69.8236C94.7765 65.1328 99.3482 64.2754 100.872 64.124C101.007 64.1143 101.135 64.054 101.235 63.9531C101.335 63.8522 101.4 63.7168 101.421 63.5692L102.792 54.8602C102.812 54.6943 102.777 54.5261 102.693 54.3869C102.609 54.2477 102.481 54.147 102.335 54.1036C101.26 53.7601 100.315 53.0392 99.6438 52.0502C98.9729 51.0612 98.6123 49.858 98.6167 48.6226C98.7844 43.9991 102.777 43.3266 104.179 43.2425C104.318 43.2327 104.45 43.1706 104.552 43.0666C104.655 42.9626 104.722 42.8229 104.743 42.6709L106.13 33.5247C106.145 33.4373 106.144 33.3473 106.126 33.2603C106.109 33.1733 106.076 33.0911 106.029 33.0188C105.982 32.9464 105.922 32.8853 105.853 32.8394C105.784 32.7934 105.707 32.7634 105.627 32.7513C105.024 32.6944 104.438 32.5061 103.901 32.1974C103.365 31.8886 102.89 31.4655 102.503 30.9525C102.116 30.4396 101.825 29.8471 101.647 29.2092C101.469 28.5714 101.408 27.9009 101.466 27.2367C101.466 22.6805 105.794 22.1929 107.303 22.1929C107.444 22.1838 107.578 22.1223 107.683 22.0185C107.788 21.9147 107.858 21.7747 107.882 21.6213L108.994 13.383C109.014 13.2172 108.979 13.0489 108.895 12.9097C108.811 12.7705 108.684 12.6698 108.537 12.6264L62.1196 0Z" fill="url(#paint0_linear_233_2578)"/>
<path d="M46.7584 0L48.2823 8.9276C48.3015 9.0779 48.2763 9.23102 48.2104 9.36427C48.1445 9.49752 48.0415 9.6038 47.9166 9.66736C46.6517 10.2726 43.3449 12.307 44.9907 16.3925C46.6365 20.478 49.2728 20.2426 50.3853 19.9904C50.5344 19.9598 50.6884 19.9933 50.8159 20.0839C50.9434 20.1745 51.0347 20.3155 51.071 20.478L53.3416 29.5233C53.3805 29.6688 53.3712 29.8248 53.3153 29.9634C53.2595 30.102 53.1608 30.2142 53.0368 30.2799C51.8025 31.0028 48.4652 33.4407 49.989 37.7279C50.4379 38.8675 51.213 39.8134 52.1956 40.4207C53.1781 41.028 54.314 41.2633 55.4293 41.0905C55.5764 41.0592 55.7287 41.0903 55.8558 41.1776C55.983 41.2649 56.0756 41.4019 56.1151 41.5613L58.1419 50.119C58.1739 50.2584 58.1645 50.4055 58.1151 50.5387C58.0658 50.6718 57.979 50.784 57.8676 50.8587C56.5723 51.6826 52.6559 54.5744 54.4693 58.828C55.031 59.9056 55.8525 60.7902 56.8424 61.3838C57.8324 61.9774 58.9521 62.2567 60.0772 62.1906C60.2098 62.1959 60.3373 62.2477 60.4414 62.3384C60.5455 62.4291 60.6208 62.554 60.6563 62.695L62.4545 71.1014C62.4865 71.2445 62.4738 71.3954 62.4185 71.5296C62.3632 71.6638 62.2685 71.7736 62.1497 71.8411C61.3345 72.2765 60.6174 72.9067 60.0507 73.6862C59.4839 74.4656 59.0817 75.3745 58.8733 76.347C58.714 77.9498 58.9675 79.5698 59.6048 81.0209C59.6435 81.1115 59.6634 81.2105 59.6631 81.3107C59.6627 81.4109 59.642 81.5097 59.6026 81.5999C59.5631 81.6902 59.5059 81.7695 59.4351 81.8323C59.3643 81.895 59.2817 81.9394 59.1933 81.9624L18.5664 92.9076C18.4768 92.9339 18.3828 92.9366 18.292 92.9157C18.2013 92.8947 18.1162 92.8507 18.0436 92.7869C17.971 92.7232 17.913 92.6416 17.8741 92.5487C17.8352 92.4558 17.8166 92.3541 17.8197 92.2519C17.8409 90.6582 17.4667 89.0885 16.7378 87.7124C16.1842 86.9184 15.4769 86.2709 14.6675 85.8171C13.8581 85.3634 12.967 85.1148 12.0594 85.0896C11.9247 85.0814 11.7963 85.0241 11.6943 84.9268C11.5922 84.8294 11.5224 84.6975 11.4956 84.5516L9.9717 76.1452C9.94852 76.0009 9.96873 75.8521 10.0293 75.7216C10.0898 75.5911 10.1873 75.486 10.307 75.4222C11.3667 74.9697 12.2907 74.1994 12.9746 73.1983C13.6586 72.1971 14.0753 71.0049 14.1776 69.7563C14.1776 65.0656 9.60596 64.2081 8.08207 64.0568C7.96455 64.0248 7.85832 63.955 7.7769 63.8562C7.69548 63.7574 7.64257 63.6341 7.62491 63.502L6.26864 54.7929C6.24454 54.6289 6.27637 54.4608 6.35797 54.3211C6.43958 54.1813 6.56519 54.0799 6.71057 54.0364C7.78869 53.6978 8.73632 52.9782 9.40801 51.9881C10.0797 50.998 10.4383 49.7921 10.4289 48.5554C10.2612 43.9319 6.26864 43.2594 4.86666 43.1753C4.72762 43.1654 4.59582 43.1034 4.49323 42.9993C4.39064 42.8953 4.32344 42.7557 4.30283 42.6037L2.87037 33.4575C2.85742 33.369 2.86062 33.2786 2.87978 33.1916C2.89894 33.1045 2.93367 33.0226 2.98193 32.9505C3.0302 32.8785 3.09103 32.8178 3.16084 32.772C3.23066 32.7263 3.30806 32.6964 3.38849 32.6841C3.99781 32.6378 4.59254 32.4572 5.13756 32.1531C5.68259 31.849 6.16685 31.4274 6.56175 30.9134C6.95665 30.3993 7.25419 29.8032 7.43679 29.1602C7.61939 28.5171 7.68336 27.8402 7.62491 27.1695C7.62491 22.6132 3.28182 22.1257 1.78841 22.1257C1.64577 22.1229 1.50878 22.0637 1.40246 21.9587C1.29615 21.8538 1.2276 21.7101 1.20933 21.554L0.00545496 13.3157C-0.0145365 13.1499 0.0208212 12.9817 0.104936 12.8425C0.18905 12.7033 0.31618 12.6026 0.462622 12.5592L46.7584 0Z" fill="url(#paint1_linear_233_2578)"/>
<path d="M46.3023 65.58V84.7203C46.3023 85.8437 45.8956 86.9213 45.171 87.7175C44.4464 88.5138 43.463 88.9638 42.4358 88.9692H33.4888V20.252H41.9315C43.0941 20.2627 44.2058 20.7754 45.0244 21.6783C45.8431 22.5812 46.3024 23.8013 46.3023 25.0728V43.0283C46.2974 43.7265 46.4189 44.4189 46.6598 45.0655C46.9007 45.7121 47.2563 46.3002 47.706 46.7958C48.1557 47.2914 48.6907 47.6848 49.2801 47.9532C49.8695 48.2217 50.5016 48.3599 51.1401 48.3598H57.7523C58.496 48.3734 59.2348 48.2249 59.9254 47.923C60.6161 47.6211 61.2449 47.1719 61.7752 46.6015C62.3055 46.031 62.7266 45.3509 63.014 44.6007C63.3015 43.8504 63.4494 43.0451 63.4493 42.2317V25.0319C63.4493 24.4044 63.5632 23.7831 63.7845 23.2041C64.0057 22.6251 64.3299 22.0999 64.7383 21.659C65.1467 21.2181 65.631 20.8703 66.1633 20.6358C66.6955 20.4013 67.265 20.2847 67.8388 20.2928H76.1695V88.9079H68.2497C66.9766 88.9079 65.7556 88.3548 64.8553 87.3703C63.9551 86.3857 63.4493 85.0504 63.4493 83.6581V60.8409H50.6358C50.0667 60.8409 49.5032 60.9635 48.9774 61.2016C48.4517 61.4398 47.974 61.7889 47.5716 62.2289C47.1692 62.669 46.85 63.1914 46.6322 63.7664C46.4144 64.3414 46.3023 64.9576 46.3023 65.58Z" fill="#070707"/>
<defs>
<linearGradient id="paint0_linear_233_2578" x1="86.5932" y1="8.94441" x2="67.5213" y2="82.0631" gradientUnits="userSpaceOnUse">
<stop stop-color="#FF441A"/>
<stop offset="1" stop-color="#FF07C2"/>
</linearGradient>
<linearGradient id="paint1_linear_233_2578" x1="66.569" y1="68.1591" x2="-8.33434" y2="28.9654" gradientUnits="userSpaceOnUse">
<stop stop-color="#FF441A"/>
<stop offset="1" stop-color="#FF07C2"/>
</linearGradient>
</defs>
</svg>
