<svg width="200" height="63" viewBox="0 0 200 63" fill="none" xmlns="http://www.w3.org/2000/svg">
<path d="M71.1224 54.2111C69.6491 54.2111 69.2152 51.1838 65.9456 50.7196C65.3931 52.0561 64.4436 53.1909 63.2255 53.9705C62.0073 54.7501 60.5792 55.137 59.1341 55.0789C52.2116 55.0789 50.5264 51.3149 50.5264 47.45C50.5264 40.9614 57.1159 39.2762 60.9808 38.368C63.332 37.8231 64.4219 36.7837 65.0173 35.3407V35.1187C65.0173 33.8674 63.6045 33.161 62.1816 33.161C61.7986 33.1365 61.4147 33.1948 61.0562 33.3319C60.6977 33.469 60.3728 33.6817 60.1038 33.9555C59.8348 34.2293 59.6279 34.5579 59.4971 34.9187C59.3664 35.2796 59.3148 35.6645 59.346 36.047H51.7777C51.6162 31.6372 55.5316 27.7622 61.9697 27.7622C67.8529 27.7622 71.9398 30.2144 71.9398 35.1792V54.2515L71.1224 54.2111ZM65.0677 41.7284C63.9034 42.3112 62.7036 42.8202 61.4753 43.2521C59.3965 44.019 57.4388 44.6144 57.4388 47.1776C57.4994 48.9233 59.1341 49.9526 60.9808 49.9526C61.5072 49.9958 62.0368 49.9269 62.5346 49.7503C63.0324 49.5737 63.487 49.2935 63.8685 48.9283C64.25 48.563 64.5497 48.1209 64.7477 47.6313C64.9457 47.1416 65.0376 46.6155 65.0173 46.0877L65.0677 41.7284Z" fill="white"/>
<path d="M82.1318 36.501V54.2109H75.2092V28.6501H76.0266C77.5504 28.6501 77.9843 32.081 81.9097 32.1921L88.0149 27.7822C92.6467 27.7822 96.5722 30.8096 96.5722 35.7845V54.2109H89.7001V37.1367C89.7001 35.179 88.691 33.1003 85.8857 33.1003C85.4122 33.06 84.9355 33.1177 84.4853 33.2698C84.0351 33.4218 83.621 33.6649 83.2688 33.9839C82.9167 34.3029 82.634 34.6911 82.4384 35.1241C82.2427 35.5572 82.1384 36.0258 82.1318 36.501Z" fill="white"/>
<path d="M105.836 50.3357C101.799 48.7009 99.4583 45.1589 99.4583 39.5483C99.4583 31.6973 104.746 27.782 111.063 27.782C112.787 27.774 114.506 27.9568 116.189 28.3269C117.1 28.5326 118.031 28.6408 118.964 28.6498C121.004 28.5411 123.031 28.2507 125.019 27.782V28.5994C125.019 30.1736 122.083 30.1736 121.649 34.3715C122.251 36.038 122.618 37.7804 122.739 39.5483C122.739 47.4496 117.39 51.3145 111.073 51.3145H109.872C108.026 51.3145 107.309 51.587 107.309 52.6264C107.309 53.8777 108.026 54.2107 109.872 54.2107H123.283V61.1231H106.936C101.971 61.1231 99.5793 58.9434 99.5793 54.2107L105.836 50.3357ZM111.063 32.8982C108.722 32.8982 106.704 35.2999 106.704 39.5483C106.704 43.2517 108.722 45.6029 111.063 45.6029C113.404 45.6029 115.473 43.2618 115.473 39.5483C115.523 35.2999 113.505 32.8982 111.063 32.8982Z" fill="white"/>
<path d="M166.595 45.7546V28.5996H173.457V54.1605H172.639C171.115 54.1605 170.732 50.7799 166.807 50.6185L161.357 55.0283C156.786 55.0283 152.8 52.001 152.8 47.0159V28.6501H159.723V45.805C159.783 47.7728 160.429 49.791 163.214 49.791C165.999 49.791 166.595 47.7728 166.595 45.7546Z" fill="white"/>
<path d="M177.705 34.7554H175.636V28.7007H177.705V21.0718H178.523C180.107 21.0718 180.49 24.5633 184.577 24.5633V28.5998H188.937V34.6545H184.577V43.9181C184.577 47.1877 186.757 47.1877 188.937 47.1877V54.1102H184.577C179.532 54.1102 177.655 49.8013 177.655 45.2199L177.705 34.7554Z" fill="white"/>
<path d="M137.169 28.6499C143.486 28.6499 149.369 32.8478 149.369 42.273C149.369 51.6981 143.486 55.9465 137.169 55.9465C130.852 55.9465 125.06 51.7586 125.06 42.273C125.06 32.7873 130.902 28.6499 137.169 28.6499ZM137.169 34.2101C134.767 34.2101 132.477 36.7127 132.477 42.283C132.477 47.8534 134.767 50.356 137.169 50.356C139.571 50.356 141.902 47.9038 141.902 42.283C141.902 36.6623 139.621 34.2101 137.169 34.2101Z" fill="white"/>
<path d="M195.778 48.59C196.533 48.59 197.27 48.8137 197.897 49.2329C198.525 49.652 199.014 50.2477 199.302 50.9447C199.591 51.6417 199.666 52.4087 199.519 53.1486C199.372 53.8886 199.009 54.5682 198.475 55.1017C197.942 55.6352 197.262 55.9984 196.522 56.1456C195.782 56.2928 195.015 56.2173 194.318 55.9286C193.621 55.6398 193.026 55.1509 192.607 54.5237C192.187 53.8964 191.964 53.1589 191.964 52.4045C191.961 51.9028 192.058 51.4056 192.249 50.9416C192.439 50.4776 192.72 50.056 193.075 49.7013C193.43 49.3465 193.851 49.0657 194.315 48.8749C194.779 48.6842 195.276 48.5873 195.778 48.59ZM192.347 22.353H199.209L197.847 45.5627H193.709L192.347 22.353Z" fill="white"/>
<path d="M24.7031 62.082L28.8809 57.8639L29.2139 57.5309C29.2139 57.5309 26.3278 54.3825 29.2139 52.6973C29.5756 52.4466 29.9836 52.2705 30.4141 52.1794C30.8447 52.0883 31.289 52.084 31.7213 52.1667C32.1535 52.2494 32.5649 52.4174 32.9314 52.661C33.2979 52.9046 33.6122 53.2188 33.8558 53.5853L38.8307 49.3369C38.8307 49.3369 36.4997 45.6032 39.3756 43.7363C40.1309 43.3095 41.0171 43.1764 41.8644 43.3627C42.7117 43.5489 43.4604 44.0413 43.9671 44.7454L48.5687 40.709C48.5687 40.709 46.1367 36.3698 49.1136 34.6543C49.1136 34.6543 51.0612 33.4635 53.8363 35.6029L58.1855 31.5664C58.1855 31.5664 56.7829 29.3564 57.6204 27.4189C58.1295 26.4223 58.9829 25.6442 60.0221 25.2292L61.334 23.998L39.1335 0.0820312C38.6702 1.16074 37.8105 2.02045 36.7318 2.48372C34.8144 3.1901 32.8265 1.53516 32.8265 1.53516L28.6588 5.73307C30.4551 8.82096 29.1634 10.7786 29.1634 10.7786C27.3167 13.7454 23.4014 10.8392 23.4014 10.8392L19.1732 15.2995C19.811 15.9255 20.218 16.749 20.3279 17.6359C20.4379 18.5228 20.2443 19.4208 19.7786 20.1836C17.7604 23.0293 14.4001 20.2744 14.4001 20.2744L9.95996 25.0273C10.7221 25.5966 11.2411 26.4326 11.4133 27.3681C11.5854 28.3037 11.3979 29.2697 10.8883 30.0729C9.04166 32.9691 5.4694 29.8509 5.45931 29.8408L0 34.8158L24.7233 62.0618" fill="url(#paint0_linear_130_2866)"/>
<path d="M31.0907 43.6252V53.0806C31.0907 53.6355 30.871 54.1679 30.4795 54.5612C30.0881 54.9545 29.5568 55.1769 29.0019 55.1795H24.1682V21.2329H28.7294C29.3575 21.2382 29.9581 21.4915 30.4004 21.9375C30.8426 22.3836 31.0908 22.9863 31.0907 23.6144V32.4845C31.0881 32.8295 31.1537 33.1715 31.2839 33.4909C31.414 33.8104 31.6061 34.1009 31.8491 34.3457C32.092 34.5905 32.3811 34.7849 32.6995 34.9175C33.0179 35.0501 33.3594 35.1183 33.7043 35.1183H37.2766C37.6784 35.125 38.0775 35.0517 38.4506 34.9025C38.8238 34.7534 39.1635 34.5315 39.45 34.2497C39.7364 33.9679 39.964 33.6319 40.1192 33.2613C40.2745 32.8907 40.3545 32.4928 40.3544 32.091V23.5942C40.3544 23.2842 40.4159 22.9773 40.5355 22.6913C40.655 22.4052 40.8302 22.1458 41.0508 21.928C41.2714 21.7102 41.5331 21.5384 41.8206 21.4225C42.1082 21.3067 42.4158 21.2491 42.7258 21.2531H47.2265V55.1493H42.9478C42.26 55.1493 41.6004 54.876 41.114 54.3897C40.6276 53.9033 40.3544 53.2436 40.3544 52.5558V41.284H33.4319C33.1244 41.284 32.82 41.3446 32.536 41.4622C32.2519 41.5799 31.9938 41.7523 31.7764 41.9697C31.559 42.1871 31.3866 42.4452 31.2689 42.7292C31.1513 43.0133 31.0907 43.3177 31.0907 43.6252Z" fill="white"/>
<defs>
<linearGradient id="paint0_linear_130_2866" x1="13.659" y1="47.538" x2="51.1057" y2="15.8048" gradientUnits="userSpaceOnUse">
<stop stop-color="#FF441A"/>
<stop offset="1" stop-color="#FF07C2"/>
</linearGradient>
</defs>
</svg>
