<svg width="213" height="66" viewBox="0 0 213 66" fill="none" xmlns="http://www.w3.org/2000/svg">
<path d="M75.7109 57.6211C74.1426 57.6211 73.6807 54.3984 70.2002 53.9043C69.612 55.3271 68.6013 56.535 67.3045 57.3649C66.0078 58.1948 64.4876 58.6067 62.9492 58.5449C55.5801 58.5449 53.7861 54.5381 53.7861 50.4238C53.7861 43.5166 60.8008 41.7227 64.915 40.7559C67.418 40.1758 68.5781 39.0693 69.2119 37.5332V37.2969C69.2119 35.9648 67.708 35.2129 66.1934 35.2129C65.7856 35.1869 65.377 35.2489 64.9953 35.3949C64.6136 35.5408 64.2679 35.7672 63.9815 36.0587C63.6951 36.3502 63.4748 36.6999 63.3356 37.0841C63.1965 37.4683 63.1416 37.8779 63.1748 38.2852H55.1182C54.9463 33.5908 59.1143 29.4658 65.9678 29.4658C72.2305 29.4658 76.5811 32.0762 76.5811 37.3613V57.6641L75.7109 57.6211ZM69.2656 44.333C68.0262 44.9535 66.749 45.4953 65.4414 45.9551C63.2285 46.7715 61.1445 47.4053 61.1445 50.1338C61.209 51.9922 62.9492 53.0879 64.915 53.0879C65.4754 53.1339 66.0392 53.0605 66.5691 52.8725C67.099 52.6845 67.5829 52.3863 67.9891 51.9974C68.3952 51.6086 68.7142 51.138 68.925 50.6167C69.1357 50.0955 69.2336 49.5355 69.2119 48.9736L69.2656 44.333Z" fill="black"/>
<path d="M87.4304 38.7695V57.6221H80.0613V30.4121H80.9314C82.5535 30.4121 83.0154 34.0644 87.1941 34.1826L93.6931 29.4883C98.6238 29.4883 102.802 32.7109 102.802 38.0068V57.6221H95.4871V39.4463C95.4871 37.3623 94.4128 35.1494 91.4265 35.1494C90.9225 35.1066 90.415 35.168 89.9358 35.3299C89.4565 35.4917 89.0157 35.7505 88.6409 36.0901C88.266 36.4297 87.9651 36.8429 87.7568 37.3038C87.5486 37.7648 87.4375 38.2637 87.4304 38.7695Z" fill="black"/>
<path d="M112.664 53.4954C108.367 51.7551 105.875 47.9846 105.875 42.012C105.875 33.6546 111.504 29.4866 118.229 29.4866C120.063 29.4781 121.893 29.6727 123.686 30.0667C124.655 30.2856 125.646 30.4008 126.64 30.4104C128.811 30.2947 130.968 29.9855 133.085 29.4866V30.3567C133.085 32.0325 129.959 32.0325 129.497 36.5012C130.138 38.2753 130.529 40.1301 130.657 42.012C130.657 50.4231 124.964 54.5374 118.239 54.5374H116.961C114.995 54.5374 114.232 54.8274 114.232 55.9338C114.232 57.2659 114.995 57.6204 116.961 57.6204H131.237V64.9788H113.835C108.55 64.9788 106.004 62.6585 106.004 57.6204L112.664 53.4954ZM118.229 34.9329C115.736 34.9329 113.588 37.4895 113.588 42.012C113.588 45.9544 115.736 48.4573 118.229 48.4573C120.721 48.4573 122.923 45.9651 122.923 42.012C122.977 37.4895 120.828 34.9329 118.229 34.9329Z" fill="black"/>
<path d="M177.343 48.6191V30.3574H184.647V57.5674H183.777C182.155 57.5674 181.747 53.9687 177.568 53.7969L171.768 58.4912C166.901 58.4912 162.658 55.2686 162.658 49.9619V30.4111H170.027V48.6728C170.092 50.7676 170.779 52.916 173.744 52.916C176.709 52.916 177.343 50.7676 177.343 48.6191Z" fill="black"/>
<path d="M189.17 36.9102H186.968V30.4648H189.17V22.3438H190.04C191.727 22.3438 192.135 26.0605 196.485 26.0605V30.3574H201.126V36.8027H196.485V46.6641C196.485 50.1445 198.806 50.1445 201.126 50.1445V57.5137H196.485C191.114 57.5137 189.116 52.9268 189.116 48.0498L189.17 36.9102Z" fill="black"/>
<path d="M146.019 30.4111C152.743 30.4111 159.006 34.8799 159.006 44.9131C159.006 54.9463 152.743 59.4688 146.019 59.4688C139.294 59.4688 133.128 55.0107 133.128 44.9131C133.128 34.8154 139.348 30.4111 146.019 30.4111ZM146.019 36.3301C143.462 36.3301 141.023 38.9941 141.023 44.9238C141.023 50.8535 143.462 53.5176 146.019 53.5176C148.575 53.5176 151.057 50.9072 151.057 44.9238C151.057 38.9404 148.629 36.3301 146.019 36.3301Z" fill="black"/>
<path d="M208.409 51.6377C209.212 51.6377 209.997 51.8758 210.665 52.322C211.333 52.7682 211.853 53.4024 212.16 54.1443C212.468 54.8863 212.548 55.7027 212.392 56.4904C212.235 57.2781 211.848 58.0016 211.28 58.5695C210.712 59.1374 209.989 59.5241 209.201 59.6808C208.413 59.8374 207.597 59.757 206.855 59.4497C206.113 59.1424 205.479 58.6219 205.033 57.9542C204.587 57.2864 204.348 56.5013 204.348 55.6982C204.346 55.1642 204.449 54.6349 204.652 54.141C204.855 53.647 205.154 53.1983 205.531 52.8207C205.909 52.443 206.358 52.144 206.852 51.941C207.346 51.7379 207.875 51.6348 208.409 51.6377ZM204.757 23.708H212.061L210.611 48.415H206.207L204.757 23.708Z" fill="black"/>
<path d="M26.2969 66L30.7441 61.5098L31.0986 61.1553C31.0986 61.1553 28.0264 57.8037 31.0986 56.0098C31.4837 55.7429 31.918 55.5555 32.3763 55.4585C32.8346 55.3615 33.3077 55.3569 33.7678 55.445C34.2279 55.533 34.6659 55.7119 35.056 55.9712C35.4462 56.2305 35.7807 56.565 36.04 56.9551L41.3359 52.4326C41.3359 52.4326 38.8545 48.458 41.916 46.4707C42.72 46.0163 43.6634 45.8747 44.5653 46.0729C45.4673 46.2712 46.2643 46.7953 46.8037 47.5449L51.7021 43.2481C51.7021 43.2481 49.1133 38.6289 52.2822 36.8027C52.2822 36.8027 54.3555 35.5352 57.3096 37.8125L61.9395 33.5156C61.9395 33.5156 60.4463 31.1631 61.3379 29.1006C61.8798 28.0397 62.7882 27.2114 63.8945 26.7695L65.291 25.459L41.6582 0C41.165 1.14831 40.2499 2.06348 39.1016 2.55664C37.0605 3.30859 34.9443 1.54688 34.9443 1.54688L30.5078 6.01563C32.4199 9.30274 31.0449 11.3867 31.0449 11.3867C29.0791 14.5449 24.9111 11.4512 24.9111 11.4512L20.4102 16.1992C21.0891 16.8656 21.5224 17.7423 21.6394 18.6864C21.7565 19.6305 21.5504 20.5864 21.0547 21.3984C18.9063 24.4277 15.3291 21.4951 15.3291 21.4951L10.6025 26.5547C11.4138 27.1606 11.9664 28.0506 12.1496 29.0465C12.3329 30.0424 12.1333 31.0707 11.5908 31.9258C9.625 35.0088 5.82227 31.6895 5.81152 31.6787L0 36.9746L26.3184 65.9785" fill="url(#paint0_linear_21_1955)"/>
<path d="M33.0964 46.3525V56.418C33.0964 57.0087 32.8625 57.5754 32.4458 57.9941C32.0291 58.4128 31.4635 58.6495 30.8728 58.6523H25.7273V22.5156H30.5828C31.2514 22.5213 31.8907 22.7909 32.3615 23.2657C32.8323 23.7405 33.0965 24.3821 33.0964 25.0508V34.4932C33.0936 34.8603 33.1635 35.2244 33.302 35.5645C33.4406 35.9045 33.6451 36.2138 33.9037 36.4744C34.1623 36.735 34.47 36.9419 34.809 37.0831C35.1479 37.2242 35.5115 37.2969 35.8787 37.2969H39.6814C40.1091 37.304 40.5339 37.2259 40.9312 37.0672C41.3284 36.9084 41.69 36.6722 41.995 36.3722C42.2999 36.0722 42.5421 35.7145 42.7074 35.32C42.8727 34.9255 42.9578 34.502 42.9578 34.0742V25.0293C42.9577 24.6993 43.0232 24.3726 43.1505 24.0681C43.2778 23.7636 43.4642 23.4874 43.6991 23.2556C43.9339 23.0237 44.2125 22.8408 44.5186 22.7175C44.8247 22.5942 45.1522 22.5328 45.4822 22.5371H50.2732V58.6201H45.7185C44.9863 58.6201 44.2841 58.3293 43.7664 57.8115C43.2486 57.2938 42.9578 56.5916 42.9578 55.8594V43.8604H35.5886C35.2613 43.8604 34.9373 43.9248 34.6349 44.0501C34.3325 44.1753 34.0578 44.3589 33.8264 44.5903C33.595 44.8217 33.4114 45.0965 33.2861 45.3988C33.1609 45.7012 33.0964 46.0253 33.0964 46.3525Z" fill="black"/>
<defs>
<linearGradient id="paint0_linear_21_1955" x1="14.5402" y1="50.5176" x2="54.4029" y2="16.7372" gradientUnits="userSpaceOnUse">
<stop stop-color="#FF441A"/>
<stop offset="1" stop-color="#FF07C2"/>
</linearGradient>
</defs>
</svg>
