<svg width="121" height="103" viewBox="0 0 121 103" fill="none" xmlns="http://www.w3.org/2000/svg">
<path d="M68.8016 0L67.1138 9.88789C67.0833 10.0552 67.1071 10.229 67.1812 10.3789C67.2553 10.5287 67.3748 10.6449 67.5188 10.7072C68.9197 11.3776 72.5823 13.6308 70.7594 18.1557C68.9366 22.6807 66.0167 22.42 64.7677 22.1407C64.603 22.1112 64.4343 22.1501 64.294 22.2498C64.1537 22.3496 64.0519 22.5031 64.0082 22.6807L61.5946 32.6803C61.5581 32.8415 61.5715 33.0116 61.6327 33.1634C61.6938 33.3152 61.7993 33.4402 61.9322 33.5183C63.3162 34.319 66.9956 37.0191 65.3078 41.7675C64.8084 43.0278 63.9495 44.0735 62.8618 44.7458C61.7742 45.4181 60.5173 45.68 59.2823 45.4918C59.1173 45.4564 58.9463 45.4903 58.8027 45.5867C58.6591 45.6831 58.5533 45.8352 58.5059 46.0132L56.278 55.4914C56.2334 55.6456 56.2393 55.8122 56.2949 55.962C56.3505 56.1118 56.452 56.2353 56.5818 56.3107C58.0165 57.2232 62.3542 60.426 60.3288 65.1372C59.7079 66.3277 58.8008 67.3057 57.7076 67.9629C56.6145 68.6202 55.3779 68.9311 54.1345 68.8615C53.9877 68.8674 53.8464 68.9247 53.7311 69.0252C53.6158 69.1256 53.5325 69.2639 53.4932 69.4201L51.5015 78.7307C51.4661 78.8893 51.4802 79.0564 51.5414 79.205C51.6027 79.3537 51.7075 79.4753 51.8391 79.5501C52.742 80.0322 53.5362 80.7303 54.1639 81.5936C54.7916 82.4568 55.2371 83.4635 55.4679 84.5406C55.6345 86.3155 55.3542 88.1067 54.6578 89.7173C54.6148 89.8176 54.5928 89.9273 54.5932 90.0382C54.5936 90.1492 54.6165 90.2586 54.6602 90.3586C54.7039 90.4585 54.7672 90.5464 54.8457 90.6159C54.9241 90.6853 55.0156 90.7346 55.1135 90.7601L100.077 102.976C100.176 103.005 100.28 103.008 100.381 102.985C100.481 102.961 100.575 102.913 100.656 102.842C100.736 102.771 100.8 102.681 100.843 102.578C100.886 102.475 100.907 102.363 100.904 102.249C100.88 100.484 101.295 98.7457 102.102 97.2216C102.715 96.3423 103.498 95.6251 104.395 95.1225C105.291 94.6199 106.278 94.3446 107.284 94.3167C107.432 94.3102 107.573 94.2472 107.684 94.1386C107.795 94.0299 107.868 93.8823 107.891 93.7208L109.579 84.4102C109.599 84.2508 109.575 84.0884 109.508 83.9451C109.442 83.8018 109.337 83.6846 109.208 83.6095C108.043 83.1 107.031 82.2432 106.282 81.135C105.534 80.0267 105.08 78.7107 104.971 77.3341C104.971 72.1388 110.035 71.1891 111.723 71.0215C111.872 71.0107 112.014 70.9439 112.124 70.8322C112.235 70.7204 112.307 70.5705 112.33 70.407L113.849 60.7612C113.871 60.5775 113.832 60.3912 113.739 60.237C113.646 60.0829 113.505 59.9713 113.343 59.9232C112.152 59.5427 111.105 58.7444 110.362 57.649C109.619 56.5536 109.22 55.2209 109.225 53.8527C109.41 48.7319 113.832 47.987 115.385 47.8939C115.539 47.883 115.685 47.8142 115.799 47.699C115.912 47.5838 115.987 47.4292 116.01 47.2608L117.545 37.1308C117.562 37.0339 117.561 36.9343 117.542 36.8379C117.523 36.7416 117.486 36.6506 117.434 36.5704C117.382 36.4902 117.315 36.4226 117.239 36.3717C117.162 36.3208 117.077 36.2876 116.988 36.2742C116.321 36.2112 115.671 36.0026 115.078 35.6607C114.484 35.3187 113.957 34.85 113.529 34.2819C113.1 33.7138 112.778 33.0576 112.581 32.3511C112.384 31.6447 112.316 30.9021 112.381 30.1665C112.381 25.1201 117.174 24.5801 118.845 24.5801C119.001 24.5699 119.149 24.5019 119.266 24.3869C119.382 24.2719 119.46 24.1169 119.486 23.947L120.719 14.8225C120.741 14.6389 120.701 14.4526 120.608 14.2984C120.515 14.1442 120.374 14.0327 120.212 13.9846L68.8016 0Z" fill="url(#paint0_linear_20_1682)"/>
<path d="M51.788 0L53.4758 9.88789C53.497 10.0544 53.4691 10.2239 53.3961 10.3715C53.3232 10.5191 53.2091 10.6368 53.0707 10.7072C51.6698 11.3776 48.0073 13.6308 49.8301 18.1557C51.6529 22.6807 54.5728 22.42 55.8049 22.1407C55.9701 22.1068 56.1407 22.1438 56.2819 22.2442C56.4231 22.3446 56.5242 22.5008 56.5644 22.6807L59.0793 32.6989C59.1223 32.8601 59.112 33.0329 59.0502 33.1864C58.9883 33.3399 58.879 33.4642 58.7417 33.5369C57.3746 34.3376 53.6783 37.0377 55.3661 41.7861C55.8633 43.0483 56.7217 44.0959 57.81 44.7686C58.8982 45.4412 60.1563 45.7018 61.3916 45.5104C61.5544 45.4757 61.7231 45.5102 61.8639 45.6069C62.0048 45.7035 62.1073 45.8553 62.1511 46.0318L64.3959 55.51C64.4313 55.6645 64.421 55.8274 64.3663 55.9749C64.3116 56.1223 64.2155 56.2466 64.0921 56.3293C62.6574 57.2418 58.3198 60.4446 60.3283 65.1558C60.9504 66.3493 61.8603 67.3291 62.9567 67.9865C64.0531 68.644 65.2933 68.9533 66.5394 68.8801C66.6862 68.886 66.8275 68.9434 66.9428 69.0438C67.0581 69.1442 67.1414 69.2825 67.1808 69.4387L69.1724 78.7493C69.2078 78.9079 69.1937 79.075 69.1325 79.2237C69.0712 79.3723 68.9664 79.4939 68.8348 79.5687C67.9319 80.0508 67.1377 80.7489 66.51 81.6122C65.8823 82.4754 65.4369 83.4822 65.206 84.5592C65.0295 86.3345 65.3103 88.1287 66.0162 89.7359C66.0591 89.8362 66.0811 89.9459 66.0807 90.0568C66.0803 90.1678 66.0574 90.2772 66.0137 90.3772C65.97 90.4771 65.9067 90.565 65.8283 90.6345C65.7498 90.704 65.6583 90.7532 65.5605 90.7787L20.5635 102.901C20.4643 102.93 20.3602 102.933 20.2596 102.91C20.1591 102.887 20.0648 102.838 19.9845 102.768C19.9041 102.697 19.8398 102.607 19.7967 102.504C19.7537 102.401 19.7331 102.288 19.7365 102.175C19.7599 100.41 19.3455 98.6712 18.5382 97.1472C17.9251 96.2678 17.1417 95.5506 16.2452 95.048C15.3488 94.5454 14.3618 94.2701 13.3566 94.2422C13.2074 94.2332 13.0652 94.1697 12.9522 94.0619C12.8392 93.9541 12.7618 93.8079 12.7321 93.6464L11.0443 84.3357C11.0186 84.1758 11.041 84.0111 11.108 83.8665C11.1751 83.722 11.2831 83.6056 11.4156 83.535C12.5893 83.0338 13.6127 82.1807 14.3702 81.0718C15.1278 79.9629 15.5893 78.6425 15.7026 77.2596C15.7026 72.0643 10.6392 71.1146 8.95142 70.947C8.82126 70.9116 8.7036 70.8343 8.61342 70.7249C8.52324 70.6154 8.46464 70.4789 8.44508 70.3325L6.94293 60.6867C6.91624 60.505 6.95148 60.3188 7.04187 60.1641C7.13225 60.0093 7.27137 59.897 7.43239 59.8488C8.62648 59.4738 9.67604 58.6768 10.42 57.5802C11.1639 56.4836 11.5611 55.1479 11.5506 53.7782C11.365 48.6574 6.94293 47.9125 5.39015 47.8194C5.23614 47.8085 5.09017 47.7397 4.97654 47.6245C4.86292 47.5093 4.78849 47.3547 4.76566 47.1863L3.17912 37.0563C3.16478 36.9584 3.16832 36.8582 3.18954 36.7618C3.21076 36.6654 3.24923 36.5746 3.30269 36.4948C3.35614 36.415 3.42351 36.3478 3.50084 36.2971C3.57816 36.2465 3.66389 36.2134 3.75297 36.1997C4.42784 36.1484 5.08654 35.9485 5.69019 35.6116C6.29383 35.2748 6.83018 34.8079 7.26756 34.2386C7.70494 33.6692 8.03448 33.0089 8.23672 32.2968C8.43897 31.5846 8.50981 30.8349 8.44508 30.092C8.44508 25.0456 3.63483 24.5056 1.98078 24.5056C1.82279 24.5026 1.67107 24.4369 1.55332 24.3207C1.43557 24.2044 1.35964 24.0454 1.33941 23.8725L0.00604172 14.748C-0.0161001 14.5644 0.0230609 14.3781 0.116223 14.2239C0.209385 14.0697 0.35019 13.9582 0.512384 13.9101L51.788 0Z" fill="url(#paint1_linear_20_1682)"/>
<path d="M51.2819 72.6354V93.8345C51.2819 95.0787 50.8314 96.2723 50.0289 97.1541C49.2264 98.036 48.1372 98.5344 46.9996 98.5404H37.0901V22.4316H46.441C47.7287 22.4436 48.9599 23.0114 49.8666 24.0114C50.7733 25.0115 51.282 26.3627 51.2819 27.771V47.658C51.2765 48.4313 51.411 49.1981 51.6779 49.9143C51.9447 50.6304 52.3385 51.2818 52.8366 51.8307C53.3347 52.3796 53.9272 52.8153 54.58 53.1126C55.2328 53.4099 55.9329 53.563 56.6401 53.5629H63.9636C64.7873 53.578 65.6054 53.4135 66.3704 53.0791C67.1354 52.7447 67.8318 52.2472 68.4191 51.6154C69.0064 50.9837 69.4729 50.2303 69.7912 49.3994C70.1096 48.5685 70.2735 47.6765 70.2733 46.7756V27.7258C70.2733 27.0307 70.3995 26.3426 70.6445 25.7013C70.8896 25.06 71.2487 24.4783 71.701 23.99C72.1532 23.5017 72.6897 23.1166 73.2792 22.8568C73.8687 22.597 74.4995 22.4679 75.135 22.4769H84.3618V98.4725H75.5901C74.18 98.4725 72.8277 97.86 71.8306 96.7695C70.8335 95.6791 70.2733 94.2002 70.2733 92.6581V67.3865H56.0815C55.4512 67.3865 54.8271 67.5223 54.2448 67.7861C53.6625 68.0498 53.1334 68.4365 52.6877 68.9239C52.242 69.4113 51.8885 69.9899 51.6473 70.6267C51.4061 71.2636 51.2819 71.9461 51.2819 72.6354Z" fill="black"/>
<defs>
<linearGradient id="paint0_linear_20_1682" x1="95.9077" y1="9.90651" x2="74.7844" y2="90.8902" gradientUnits="userSpaceOnUse">
<stop stop-color="#FF441A"/>
<stop offset="1" stop-color="#FF07C2"/>
</linearGradient>
<linearGradient id="paint1_linear_20_1682" x1="73.7294" y1="75.4906" x2="-9.23082" y2="32.0811" gradientUnits="userSpaceOnUse">
<stop stop-color="#FF441A"/>
<stop offset="1" stop-color="#FF07C2"/>
</linearGradient>
</defs>
</svg>
