<svg width="339" height="105" viewBox="0 0 339 105" fill="none" xmlns="http://www.w3.org/2000/svg">
<path d="M120.449 91.6704C117.954 91.6704 117.219 86.5435 111.682 85.7573C110.746 88.0208 109.138 89.9426 107.075 91.2629C105.012 92.5832 102.594 93.2385 100.146 93.1401C88.4229 93.1401 85.5688 86.7656 85.5688 80.2202C85.5688 69.2314 96.7285 66.3774 103.274 64.8394C107.256 63.9165 109.102 62.1563 110.11 59.7124V59.3364C110.11 57.2173 107.717 56.021 105.308 56.021C104.659 55.9796 104.009 56.0783 103.402 56.3105C102.794 56.5427 102.244 56.9029 101.789 57.3666C101.333 57.8303 100.983 58.3867 100.761 58.9979C100.54 59.6091 100.453 60.2608 100.505 60.9087H87.688C87.4146 53.4404 94.0454 46.8779 104.949 46.8779C114.912 46.8779 121.833 51.0308 121.833 59.439V91.7388L120.449 91.6704ZM110.195 70.5303C108.224 71.5174 106.192 72.3793 104.111 73.1108C100.591 74.4097 97.2754 75.418 97.2754 79.7588C97.3779 82.7153 100.146 84.4585 103.274 84.4585C104.165 84.5317 105.062 84.4149 105.905 84.1159C106.748 83.8168 107.518 83.3423 108.164 82.7237C108.81 82.105 109.318 81.3564 109.653 80.5271C109.989 79.6979 110.144 78.8069 110.11 77.9131L110.195 70.5303Z" fill="white"/>
<path d="M139.094 61.6768V91.6694H127.371V48.3808H128.755C131.335 48.3808 132.07 54.1914 138.718 54.3794L149.058 46.9111C156.902 46.9111 163.55 52.0381 163.55 60.4634V91.6694H151.912V62.7534C151.912 59.438 150.203 55.9175 145.452 55.9175C144.65 55.8494 143.843 55.9471 143.08 56.2045C142.318 56.462 141.616 56.8737 141.02 57.414C140.424 57.9543 139.945 58.6116 139.613 59.345C139.282 60.0784 139.105 60.8721 139.094 61.6768Z" fill="white"/>
<path d="M179.238 85.1073C172.402 82.3388 168.438 76.3403 168.438 66.8383C168.438 53.5424 177.393 46.9116 188.091 46.9116C191.01 46.8981 193.921 47.2076 196.772 47.8344C198.315 48.1827 199.891 48.366 201.472 48.3813C204.927 48.1972 208.359 47.7053 211.726 46.9116V48.2958C211.726 50.9618 206.753 50.9618 206.018 58.0712C207.038 60.8936 207.659 63.8444 207.864 66.8383C207.864 80.2196 198.806 86.7651 188.108 86.7651H186.074C182.947 86.7651 181.733 87.2265 181.733 88.9867C181.733 91.1059 182.947 91.6698 186.074 91.6698H208.787V103.376H181.101C172.693 103.376 168.643 99.685 168.643 91.6698L179.238 85.1073ZM188.091 55.5761C184.126 55.5761 180.708 59.6435 180.708 66.8383C180.708 73.1103 184.126 77.0922 188.091 77.0922C192.056 77.0922 195.559 73.1274 195.559 66.8383C195.645 59.6435 192.227 55.5761 188.091 55.5761Z" fill="white"/>
<path d="M282.136 77.3486V48.2959H293.757V91.5845H292.373C289.792 91.5845 289.143 85.8594 282.495 85.5859L273.267 93.0542C265.525 93.0542 258.774 87.9272 258.774 79.4849V48.3813H270.498V77.4341C270.601 80.7666 271.694 84.1846 276.411 84.1846C281.128 84.1846 282.136 80.7666 282.136 77.3486Z" fill="white"/>
<path d="M300.952 58.7207H297.449V48.4668H300.952V35.5469H302.336C305.02 35.5469 305.669 41.46 312.59 41.46V48.2959H319.973V58.5498H312.59V74.2383C312.59 79.7754 316.282 79.7754 319.973 79.7754V91.499H312.59C304.045 91.499 300.867 84.2017 300.867 76.4429L300.952 58.7207Z" fill="white"/>
<path d="M232.302 48.3818C243 48.3818 252.964 55.4912 252.964 71.4531C252.964 87.415 243 94.6099 232.302 94.6099C221.604 94.6099 211.794 87.5176 211.794 71.4531C211.794 55.3887 221.689 48.3818 232.302 48.3818ZM232.302 57.7983C228.235 57.7983 224.355 62.0366 224.355 71.4702C224.355 80.9038 228.235 85.1421 232.302 85.1421C236.37 85.1421 240.317 80.9893 240.317 71.4702C240.317 61.9512 236.455 57.7983 232.302 57.7983Z" fill="white"/>
<path d="M331.56 82.1514C332.837 82.1514 334.086 82.5302 335.149 83.2401C336.211 83.9499 337.039 84.9588 337.528 86.1392C338.017 87.3196 338.145 88.6185 337.895 89.8716C337.646 91.1247 337.031 92.2758 336.128 93.1792C335.224 94.0827 334.073 94.6979 332.82 94.9472C331.567 95.1964 330.268 95.0685 329.088 94.5796C327.907 94.0906 326.898 93.2626 326.188 92.2003C325.479 91.138 325.1 89.889 325.1 88.6113C325.095 87.7617 325.259 86.9197 325.582 86.1339C325.905 85.3481 326.381 84.6341 326.982 84.0333C327.582 83.4326 328.296 82.9569 329.082 82.6339C329.868 82.3108 330.71 82.1468 331.56 82.1514ZM325.749 37.7178H337.37L335.063 77.0244H328.056L325.749 37.7178Z" fill="white"/>
<path d="M41.8359 105L48.9111 97.8564L49.4751 97.2925C49.4751 97.2925 44.5874 91.9604 49.4751 89.1064C50.0876 88.6819 50.7787 88.3838 51.5078 88.2295C52.2369 88.0752 52.9895 88.0678 53.7215 88.2079C54.4535 88.3479 55.1502 88.6325 55.7709 89.045C56.3916 89.4575 56.9238 89.9897 57.3364 90.6104L65.7617 83.4155C65.7617 83.4155 61.814 77.0923 66.6846 73.9307C67.9636 73.2078 69.4645 72.9825 70.8994 73.2978C72.3343 73.6132 73.6024 74.4471 74.4604 75.6396L82.2534 68.8037C82.2534 68.8037 78.1348 61.4551 83.1763 58.5498C83.1763 58.5498 86.4746 56.5332 91.1743 60.1563L98.54 53.3203C98.54 53.3203 96.1645 49.5776 97.583 46.2964C98.4451 44.6086 99.8903 43.2908 101.65 42.5879L103.872 40.5029L66.2744 0C65.4898 1.82685 64.0339 3.28281 62.207 4.06738C58.96 5.26367 55.5933 2.46094 55.5933 2.46094L48.5351 9.57032C51.5771 14.7998 49.3896 18.1152 49.3896 18.1152C46.2622 23.1397 39.6313 18.2178 39.6313 18.2178L32.4707 25.7715C33.5508 26.8317 34.2402 28.2264 34.4264 29.7283C34.6126 31.2303 34.2847 32.7511 33.4961 34.043C30.0781 38.8623 24.3872 34.1968 24.3872 34.1968L16.8677 42.2461C18.1584 43.2101 19.0374 44.626 19.3289 46.2103C19.6205 47.7947 19.3029 49.4307 18.4399 50.791C15.3125 55.6958 9.26269 50.415 9.2456 50.3979L0 58.8232L41.8701 104.966" fill="url(#paint0_linear_233_2586)"/>
<path d="M52.6538 73.7427V89.7559C52.6538 90.6957 52.2816 91.5972 51.6187 92.2634C50.9558 92.9295 50.056 93.306 49.1162 93.3105H40.9302V35.8203H48.6548C49.7185 35.8293 50.7356 36.2582 51.4846 37.0136C52.2336 37.769 52.6538 38.7897 52.6538 39.8535V54.8755C52.6493 55.4596 52.7605 56.0389 52.9809 56.5798C53.2013 57.1208 53.5266 57.6128 53.9381 58.0275C54.3496 58.4421 54.839 58.7712 55.3783 58.9958C55.9175 59.2203 56.4959 59.336 57.0801 59.3359H63.1299C63.8103 59.3473 64.4862 59.223 65.1181 58.9705C65.7501 58.7179 66.3254 58.3421 66.8105 57.8648C67.2957 57.3876 67.681 56.8186 67.944 56.1909C68.207 55.5633 68.3424 54.8895 68.3423 54.209V39.8193C68.3422 39.2943 68.4465 38.7745 68.6489 38.2901C68.8514 37.8057 69.148 37.3663 69.5216 36.9975C69.8952 36.6286 70.3384 36.3377 70.8254 36.1415C71.3123 35.9453 71.8334 35.8477 72.3584 35.8545H79.9805V93.2593H72.7344C71.5695 93.2593 70.4524 92.7965 69.6287 91.9729C68.805 91.1492 68.3423 90.032 68.3423 88.8672V69.7778H56.6187C56.098 69.7778 55.5824 69.8804 55.1014 70.0796C54.6203 70.2789 54.1833 70.5709 53.8151 70.9391C53.4469 71.3073 53.1549 71.7444 52.9556 72.2254C52.7564 72.7064 52.6538 73.222 52.6538 73.7427Z" fill="white"/>
<defs>
<linearGradient id="paint0_linear_233_2586" x1="23.1321" y1="80.3689" x2="86.55" y2="26.6273" gradientUnits="userSpaceOnUse">
<stop stop-color="#FF441A"/>
<stop offset="1" stop-color="#FF07C2"/>
</linearGradient>
</defs>
</svg>
