<svg xmlns="http://www.w3.org/2000/svg" xmlns:xlink="http://www.w3.org/1999/xlink" viewBox="0 0 158.4 160"><defs><style>.cls-1{fill:url(#Gradiente_sem_nome_2);}.cls-2{fill:#fff;}</style><linearGradient id="Gradiente_sem_nome_2" x1="-1584.11" y1="58.4" x2="-1613.18" y2="181.41" gradientTransform="matrix(-0.87, -0.67, 0.55, -0.86, -1379.3, -891.87)" gradientUnits="userSpaceOnUse"><stop offset="0" stop-color="#ff441a"/><stop offset="1" stop-color="#ff07c2"/></linearGradient></defs><g id="Camada_2" data-name="Camada 2"><g id="Logo"><g id="Icon"><g id="Tickets"><path id="Ticket_1" data-name="Ticket 1" class="cls-1" d="M63.8,160l10.79-10.87.85-.87s-7.44-8.12.07-12.46c7.71-4.45,12,2.27,12,2.27l12.64-10.95s-6-9.64,1.42-14.46c0,0,6-3.9,11.85,2.69l11.87-10.41S119,93.75,126.68,89.43c0,0,5-3.07,12.19,2.45l11.22-10.31s-3.62-5.71-1.47-10.72c0,0,2.07-4.56,6.39-6,0,0,3.4-3.16,3.39-3.17L101,0h0a11.91,11.91,0,0,1-6.21,6.19C89.86,8,84.74,3.74,84.74,3.74L74,14.58c4.64,8,1.3,12.94,1.3,12.94-4.76,7.66-14.86.16-14.87.16h0l-10.9,11.5c5.77,6.61,1.54,12.61,1.54,12.61-5.2,7.35-13.87.25-13.87.25L25.7,64.3S33,69.74,28.08,77.41c-4.76,7.47-14-.57-14-.58h0L0,89.67,63.8,160"/><path class="cls-2" d="M80.24,112.37v24.42a5.41,5.41,0,0,1-5.41,5.41H62.38V54.58l11.76.09a6.15,6.15,0,0,1,6.1,6.14V83.69A6.75,6.75,0,0,0,87,90.44h9.22a7.94,7.94,0,0,0,7.94-7.94V60.69a6.05,6.05,0,0,1,6.1-6.06l11.62.09V142.2h-11a6.69,6.69,0,0,1-6.68-6.69V106.33H86.28A6,6,0,0,0,80.24,112.37Z"/></g></g></g></g></svg>